<svg xmlns="http://www.w3.org/2000/svg" viewBox="0 0 40.76 43.92"><defs><style>.cls-1{fill:#05a9d7;}</style></defs><g id="Шар_2" data-name="Шар 2"><g id="Calque_1" data-name="Calque 1"><path class="cls-1" d="M39.22,2.62h-.38a1.2,1.2,0,0,0-.33-.05H35.94V1.21A1.21,1.21,0,0,0,34.73,0H1.21A1.21,1.21,0,0,0,0,1.21V40a3.93,3.93,0,0,0,3.92,3.92H38.51l.23,0h.48a1.54,1.54,0,0,0,1.54-1.54V4.16A1.54,1.54,0,0,0,39.22,2.62ZM37.3,41.5H4.24a1.82,1.82,0,0,1,0-3.64H34.73a1.22,1.22,0,0,0,1.21-1.22V5H37.3Z"/></g></g></svg>