<svg width="35" height="36" viewBox="0 0 35 36" fill="none" xmlns="http://www.w3.org/2000/svg">
<g clip-path="url(#clip0_38_19344)">
<path d="M33.6798 2.14772H33.3512C33.261 2.12416 33.168 2.11202 33.0745 2.11161H30.8662V0.994034C30.8662 0.730729 30.7567 0.47818 30.5619 0.291817C30.367 0.105454 30.1026 0.000503452 29.8268 0H1.04142C0.765216 0 0.500328 0.104728 0.305024 0.291146C0.10972 0.477563 0 0.7304 0 0.994034V32.786C0.00105397 33.6386 0.356358 34.456 0.987973 35.0589C1.61959 35.6617 2.47594 36.0009 3.36918 36.0019H33.0685C33.132 36.0013 33.1954 35.995 33.2577 35.9829H33.6738C33.8471 35.9831 34.0187 35.9508 34.1789 35.8877C34.3391 35.8245 34.4846 35.7319 34.6072 35.615C34.7298 35.4982 34.8271 35.3594 34.8935 35.2066C34.9599 35.0538 34.994 34.8901 34.994 34.7247V3.40974C34.9946 3.0762 34.8565 2.75605 34.6102 2.51949C34.3638 2.28292 34.0293 2.14923 33.6798 2.14772ZM32.0331 34.01H3.64596C3.23086 34.01 2.83277 33.8526 2.53926 33.5725C2.24574 33.2923 2.08084 32.9123 2.08084 32.5161C2.08084 32.1199 2.24574 31.7399 2.53926 31.4598C2.83277 31.1796 3.23086 31.0222 3.64596 31.0222H29.8268C29.9633 31.0222 30.0984 30.9966 30.2245 30.9467C30.3506 30.8968 30.4652 30.8238 30.5617 30.7316C30.6583 30.6395 30.7348 30.5301 30.7871 30.4098C30.8393 30.2894 30.8662 30.1604 30.8662 30.0301V4.09778H32.0331V34.01Z" fill="#05A9D7"/>
</g>
<defs>
<clipPath id="clip0_38_19344">
<rect width="35" height="36" fill="white"/>
</clipPath>
</defs>
</svg>
