<svg xmlns="http://www.w3.org/2000/svg" viewBox="0 0 47.19 44.09"><defs><style>.cls-1{fill:#05a9d7;}</style></defs><g id="Шар_2" data-name="Шар 2"><g id="Calque_1" data-name="Calque 1"><path class="cls-1" d="M18.49.14H41.88a5.33,5.33,0,0,1,5.31,5.31h0a5.33,5.33,0,0,1-5.31,5.31H18.49A5.26,5.26,0,0,1,14.74,9.2a5.3,5.3,0,0,1-1.56-3.75h0A5.33,5.33,0,0,1,18.49.14Z"/><path class="cls-1" d="M0,5.45A5.45,5.45,0,0,1,9.31,1.6a5.46,5.46,0,0,1-3.86,9.31A5.46,5.46,0,0,1,0,5.45Z"/><path class="cls-1" d="M18.49,16.73H41.88A5.33,5.33,0,0,1,47.19,22h0a5.33,5.33,0,0,1-5.31,5.31H18.49A5.33,5.33,0,0,1,13.18,22h0a5.33,5.33,0,0,1,5.31-5.31Z"/><path class="cls-1" d="M0,22a5.45,5.45,0,0,1,9.31-3.85A5.46,5.46,0,0,1,5.45,27.5,5.46,5.46,0,0,1,0,22Z"/><path class="cls-1" d="M18.49,33.32H41.88a5.33,5.33,0,0,1,5.31,5.31h0a5.33,5.33,0,0,1-5.31,5.31H18.49a5.33,5.33,0,0,1-5.31-5.31h0a5.33,5.33,0,0,1,5.31-5.31Z"/><path class="cls-1" d="M0,38.63a5.45,5.45,0,0,1,9.31-3.85,5.46,5.46,0,0,1-3.86,9.31A5.46,5.46,0,0,1,0,38.63Z"/></g></g></svg>