<svg width="35" height="35" viewBox="0 0 50 50" fill="none" xmlns="http://www.w3.org/2000/svg">
<g clip-path="url(#clip0_1_1490)">
<path d="M19.5957 0.161621H44.3891C45.8799 0.166854 47.3083 0.803005 48.3624 1.93124C49.4166 3.05947 50.011 4.58818 50.0159 6.18374C50.011 7.77929 49.4166 9.308 48.3624 10.4362C47.3083 11.5645 45.8799 12.2006 44.3891 12.2059H19.5957C18.1049 12.2006 16.6766 11.5645 15.6224 10.4362C14.5682 9.308 13.9738 7.77929 13.9689 6.18374C13.9738 4.58818 14.5682 3.05947 15.6224 1.93124C16.6766 0.803005 18.1049 0.166854 19.5957 0.161621Z" fill="#05A9D7"/>
<path d="M-1.09142e-05 6.18372C0.000103086 4.75244 0.463912 3.36547 1.31239 2.25915C2.16087 1.15282 3.34151 0.395587 4.65317 0.116468C5.96482 -0.162651 7.32632 0.0536134 8.50569 0.728413C9.68506 1.40321 10.6093 2.4948 11.121 3.81717C11.6327 5.13955 11.7001 6.6109 11.3118 7.98053C10.9235 9.35015 10.1035 10.5333 8.99155 11.3284C7.87955 12.1235 6.54436 12.4814 5.21348 12.341C3.8826 12.2006 2.63837 11.5707 1.69279 10.5585C1.15534 9.98458 0.729126 9.30263 0.438624 8.55187C0.148122 7.80111 -0.000943038 6.99632 -1.09142e-05 6.18372Z" fill="#05A9D7"/>
<path d="M19.5957 18.9765H44.3891C45.8799 18.9817 47.3083 19.6179 48.3624 20.7461C49.4166 21.8743 50.011 23.403 50.0159 24.9986C50.0103 26.5936 49.4156 28.1216 48.3615 29.2493C47.3074 30.3769 45.8795 31.0126 44.3891 31.0179H19.5957C18.1054 31.0126 16.6774 30.3769 15.6233 29.2493C14.5692 28.1216 13.9745 26.5936 13.9689 24.9986C13.9738 23.403 14.5682 21.8743 15.6224 20.7461C16.6766 19.6179 18.1049 18.9817 19.5957 18.9765Z" fill="#05A9D7"/>
<path d="M4.02707e-07 24.9986C-0.000498619 23.5672 0.462795 22.1799 1.31093 21.0731C2.15906 19.9663 3.33955 19.2085 4.65123 18.9289C5.9629 18.6493 7.32459 18.8651 8.50424 19.5396C9.6839 20.2141 10.6085 21.3055 11.1205 22.6279C11.6325 23.9502 11.7003 25.4217 11.3121 26.7915C10.924 28.1613 10.1041 29.3447 8.99211 30.14C7.8801 30.9353 6.54482 31.2933 5.21382 31.153C3.88282 31.0127 2.63846 30.3828 1.69281 29.3706C1.15614 28.7966 0.730412 28.115 0.439953 27.3648C0.149494 26.6147 -4.67565e-06 25.8106 4.02707e-07 24.9986Z" fill="#05A9D7"/>
<path d="M19.5957 37.7913H44.3891C45.8799 37.7966 47.3083 38.4327 48.3624 39.5609C49.4166 40.6892 50.011 42.2179 50.0159 43.8134C50.0117 45.409 49.4174 46.9378 48.363 48.0657C47.3086 49.1937 45.8799 49.829 44.3891 49.8327H19.5957C18.105 49.829 16.6762 49.1937 15.6218 48.0657C14.5674 46.9378 13.9731 45.409 13.9689 43.8134C13.9738 42.2179 14.5682 40.6892 15.6224 39.5609C16.6766 38.4327 18.1049 37.7966 19.5957 37.7913Z" fill="#05A9D7"/>
<path d="M4.32693e-07 43.8135C-0.000498589 42.382 0.462795 40.9947 1.31093 39.888C2.15906 38.7812 3.33955 38.0234 4.65123 37.7438C5.9629 37.4641 7.32459 37.68 8.50424 38.3545C9.6839 39.029 10.6085 40.1204 11.1205 41.4428C11.6325 42.7651 11.7003 44.2366 11.3121 45.6064C10.924 46.9762 10.1041 48.1596 8.99211 48.9549C7.8801 49.7502 6.54482 50.1082 5.21382 49.9679C3.88282 49.8276 2.63846 49.1977 1.69281 48.1854C1.1559 47.6116 0.730024 46.9301 0.439549 46.1799C0.149073 45.4297 -0.000293406 44.6255 4.32693e-07 43.8135Z" fill="#05A9D7"/>
</g>
<defs>
<clipPath id="clip0_1_1490">
<rect width="50" height="50" fill="white"/>
</clipPath>
</defs>
</svg>
