<svg xmlns="http://www.w3.org/2000/svg" viewBox="0 0 41.37 40.95"><defs><style>.cls-1{fill:#08aad9;fill-rule:evenodd;}</style></defs><g id="Шар_2" data-name="Шар 2"><g id="Calque_1" data-name="Calque 1"><path class="cls-1" d="M10.92,12.28A1.49,1.49,0,1,1,12,11.85a1.47,1.47,0,0,1-1.05.43Zm-.67,8.2a10,10,0,0,0,.83,4,9.93,9.93,0,0,0,1,1.75,9.36,9.36,0,0,0,1.28,1.53A10.4,10.4,0,0,0,14.86,29a10.76,10.76,0,0,0,1.77.95,10.56,10.56,0,0,0,8.11,0A11.18,11.18,0,0,0,26.51,29a10.83,10.83,0,0,0,2.82-2.8,10.62,10.62,0,0,0,1-1.75,10.24,10.24,0,0,0,0-8,11.14,11.14,0,0,0-1-1.76,11,11,0,0,0-1.28-1.52,10.4,10.4,0,0,0-1.54-1.27A11.18,11.18,0,0,0,24.74,11a10.56,10.56,0,0,0-8.11,0,10.76,10.76,0,0,0-1.77.95,10.4,10.4,0,0,0-1.54,1.27A9.73,9.73,0,0,0,12,14.7a10.39,10.39,0,0,0-1,1.76,10,10,0,0,0-.83,4ZM18.15,41h5.07V37.58a.26.26,0,0,1,.23-.27,17.43,17.43,0,0,0,7.3-3,.29.29,0,0,1,.36,0l2.41,2.39,3.58-3.55L34.69,30.8a.28.28,0,0,1,0-.36,16.84,16.84,0,0,0,3-7.23A.27.27,0,0,1,38,23h3.41V18H38a.28.28,0,0,1-.27-.23,17,17,0,0,0-3-7.23.29.29,0,0,1,0-.36L37.1,7.77,33.52,4.23,31.11,6.61a.28.28,0,0,1-.36,0,17.38,17.38,0,0,0-7.3-3,.27.27,0,0,1-.23-.27V0H18.15V3.37a.27.27,0,0,1-.23.27,17.38,17.38,0,0,0-7.3,3,.28.28,0,0,1-.36,0L7.85,4.22,4.27,7.77l2.41,2.38a.29.29,0,0,1,0,.36,16.84,16.84,0,0,0-3,7.23.28.28,0,0,1-.27.23H0v5H3.41a.28.28,0,0,1,.27.23,17.06,17.06,0,0,0,3,7.23.28.28,0,0,1,0,.36l-2.4,2.38,3.58,3.55,2.41-2.39a.26.26,0,0,1,.35,0,17.42,17.42,0,0,0,7.31,3,.27.27,0,0,1,.23.27V41ZM5.39,20.48A1.49,1.49,0,1,1,6.88,22a1.49,1.49,0,0,1-1.49-1.47ZM9.87,29.1a1.49,1.49,0,0,1,2.54,1,1.44,1.44,0,0,1-.44,1,1.5,1.5,0,0,1-2.1,0,1.43,1.43,0,0,1-.43-1,1.46,1.46,0,0,1,.43-1ZM29.4,31.18a1.44,1.44,0,0,1-.44-1,1.49,1.49,0,0,1,3,0,1.43,1.43,0,0,1-.43,1,1.48,1.48,0,0,1-1.05.43,1.47,1.47,0,0,1-1.05-.43Zm1.05-18.9a1.47,1.47,0,1,1,0-2.94,1.48,1.48,0,0,1,1.05.43,1.47,1.47,0,0,1,0,2.08,1.48,1.48,0,0,1-1.05.43ZM20.68,35.62a1.48,1.48,0,1,1,1.49-1.48,1.48,1.48,0,0,1-1.49,1.48ZM34.49,22a1.49,1.49,0,1,1,1-.43,1.47,1.47,0,0,1-1,.43ZM20.68,8.28A1.48,1.48,0,1,1,22.17,6.8,1.48,1.48,0,0,1,20.68,8.28Z"/></g></g></svg>