<svg xmlns="http://www.w3.org/2000/svg" viewBox="0 0 53.19 55.08"><defs><style>.cls-1{fill:none;}.cls-2{fill:#63d9ff;}.cls-3{fill:#83e2ff;}.cls-4{fill:#aef;}.cls-5{fill:#008cbb;}.cls-6{fill:#007096;}.cls-7{fill:#015d84;}.cls-8{fill:#baeeff;}.cls-9{fill:#00aad9;}.cls-10{fill:#fff;opacity:0.15;}</style></defs><g id="Шар_2" data-name="Шар 2"><g id="Calque_1" data-name="Calque 1"><path class="cls-2" d="M34.34,45.76a17.81,17.81,0,0,1-7.73,1.6h0V43.27h0L31.74,42Z"/><path class="cls-2" d="M41,35c-.34,5.59-3,9-6.7,10.79L31.74,42l4.12-7.61Z"/><path class="cls-2" d="M41,35l-5.18-.56L34,20.89l2.9-2a35.51,35.51,0,0,1,3.87,10.94A25,25,0,0,1,41,35Z"/><path class="cls-2" d="M36.87,18.85l-2.9,2-7.36-16A63.58,63.58,0,0,1,36.87,18.85Z"/><path class="cls-2" d="M34.34,45.76a17.81,17.81,0,0,1-7.73,1.6h0V43.27h0L31.74,42Z"/><path class="cls-2" d="M41,35c-.34,5.59-3,9-6.7,10.79L31.74,42l4.12-7.61Z"/><path class="cls-3" d="M41,35l-5.18-.56L34,20.89l2.9-2a35.51,35.51,0,0,1,3.87,10.94A25,25,0,0,1,41,35Z"/><path class="cls-4" d="M36.87,18.85l-2.9,2-7.36-16A63.58,63.58,0,0,1,36.87,18.85Z"/><path class="cls-5" d="M26.61,43.27v4.09h0a17.74,17.74,0,0,1-7.74-1.6l2.35-4,5.39,1.5Z"/><path class="cls-6" d="M21.2,41.77l-2.35,4C15.14,44,12.46,40.58,12.12,35l5.2-.56h0Z"/><path class="cls-7" d="M19.22,20.89,17.33,34.41h0l-5.2.56a24.33,24.33,0,0,1,.31-5.18,35.63,35.63,0,0,1,3.87-11l2.9,2v0Z"/><path class="cls-6" d="M26.61,4.82v0l-7.39,16h0v0l-2.9-2a63.72,63.72,0,0,1,10.29-14Z"/><path class="cls-8" d="M41,35c-.34,5.59-3,9-6.7,10.79L31.74,42l4.12-7.61Z"/><polygon class="cls-9" points="26.61 4.85 19.22 20.89 17.32 34.41 21.2 41.77 26.59 43.27 31.74 42.02 35.86 34.41 33.97 20.89 26.61 4.85"/><polygon class="cls-10" points="29.38 10.89 23.38 42.38 26.59 43.27 31.74 42.02 35.86 34.41 33.97 20.89 29.38 10.89"/></g></g></svg>