<svg xmlns="http://www.w3.org/2000/svg" viewBox="0 0 96.57 96.57"><defs><style>.cls-1{fill:none;}.cls-2{fill:#63d9ff;}.cls-3{fill:#83e2ff;}.cls-4{fill:#aef;}.cls-5{fill:#008cbb;}.cls-6{fill:#007096;}.cls-7{fill:#015d84;}.cls-8{fill:#baeeff;}.cls-9{fill:#00aad9;}.cls-10{fill:#fff;opacity:0.15;}</style></defs><g id="Шар_2" data-name="Шар 2"><g id="Calque_1" data-name="Calque 1"><circle class="cls-1" cx="48.28" cy="48.28" r="48.28"/><path class="cls-2" d="M62.34,80.23a33.28,33.28,0,0,1-14,2.82h0V75.87h0l9.31-2.2Z"/><path class="cls-2" d="M74.5,61.31c-.61,9.81-5.45,15.79-12.16,18.92l-4.73-6.56L65.1,60.33Z"/><path class="cls-2" d="M74.5,61.31l-9.4-1L61.68,36.62l5.25-3.57a60.69,60.69,0,0,1,7,19.18A41.68,41.68,0,0,1,74.5,61.31Z"/><path class="cls-2" d="M66.93,33.05l-5.25,3.57L48.3,8.5A111.71,111.71,0,0,1,66.93,33.05Z"/><path class="cls-2" d="M62.34,80.23a33.28,33.28,0,0,1-14,2.82h0V75.87h0l9.31-2.2Z"/><path class="cls-2" d="M74.5,61.31c-.61,9.81-5.45,15.79-12.16,18.92l-4.73-6.56L65.1,60.33Z"/><path class="cls-3" d="M74.5,61.31l-9.4-1L61.68,36.62l5.25-3.57a60.69,60.69,0,0,1,7,19.18A41.68,41.68,0,0,1,74.5,61.31Z"/><path class="cls-4" d="M66.93,33.05l-5.25,3.57L48.3,8.5A111.71,111.71,0,0,1,66.93,33.05Z"/><path class="cls-5" d="M48.3,75.87v7.18h0a33,33,0,0,1-14-2.82l4.26-7,9.78,2.64Z"/><path class="cls-6" d="M38.49,73.23l-4.26,7C27.49,77.13,22.62,71.15,22,61.31l9.43-1h0Z"/><path class="cls-7" d="M34.89,36.62,31.47,60.33h0l-9.43,1a41.68,41.68,0,0,1,.55-9.08,61.6,61.6,0,0,1,7-19.21l5.28,3.57v0Z"/><path class="cls-6" d="M48.3,8.44V8.5L34.89,36.62h0v0L29.58,33A112.43,112.43,0,0,1,48.27,8.47Z"/><path class="cls-8" d="M74.5,61.31c-.61,9.81-5.45,15.79-12.16,18.92l-4.73-6.56L65.1,60.33Z"/><polygon class="cls-9" points="48.3 8.5 34.89 36.62 31.44 60.33 38.49 73.23 48.27 75.87 57.61 73.67 65.1 60.33 61.68 36.62 48.3 8.5"/><polygon class="cls-10" points="53.34 19.09 42.44 74.3 48.27 75.87 57.61 73.67 65.1 60.33 61.68 36.62 53.34 19.09"/></g></g></svg>