<svg width="35" height="41" viewBox="0 0 35 41" fill="none" xmlns="http://www.w3.org/2000/svg">
<g clip-path="url(#clip0_38_39622)">
<path d="M23.8951 36.6051C21.9259 37.5405 19.598 37.9577 17.2302 37.9558V34.5101C17.2302 34.5101 21.6451 33.4515 21.656 33.4534L23.8951 36.6051Z" fill="#63D9FF"/>
<path d="M29.6524 27.5156C29.3644 32.2276 27.0691 35.0982 23.8952 36.6051L21.656 33.4534L25.2013 27.0415L29.6524 27.5156Z" fill="#63D9FF"/>
<path d="M29.6525 27.5156L25.2014 27.0415L23.58 15.6475L26.0673 13.9476C28.2793 17.9171 29.9333 22.9635 29.6525 27.5156Z" fill="#63D9FF"/>
<path d="M26.0673 13.9476L23.58 15.6622L17.2393 2.15295C17.464 2.35327 22.493 7.27474 26.0673 13.9476Z" fill="#63D9FF"/>
<path d="M23.8951 36.6051C21.9259 37.5405 19.598 37.9577 17.2302 37.9558V34.5101C17.2302 34.5101 21.6451 33.4515 21.656 33.4534L23.8951 36.6051Z" fill="#63D9FF"/>
<path d="M29.6524 27.5156C29.3644 32.2276 27.0691 35.0982 23.8952 36.6051L21.656 33.4534L25.2013 27.0415L29.6524 27.5156Z" fill="#63D9FF"/>
<path d="M29.6525 27.5156L25.2014 27.0415L23.58 15.6475L26.0673 13.9476C28.2793 17.9171 29.9333 22.9635 29.6525 27.5156Z" fill="#83E2FF"/>
<path d="M26.0673 13.9476L23.58 15.6622L17.2393 2.15295C17.464 2.35327 22.493 7.27474 26.0673 13.9476Z" fill="#AAEEFF"/>
<path d="M17.2448 34.5101V37.9559C14.877 37.9559 12.5618 37.5552 10.5799 36.6051L12.5962 33.2439C12.6107 33.2439 17.2303 34.5175 17.2448 34.5101Z" fill="#008CBB"/>
<path d="M12.5962 33.2439L10.5798 36.607C7.39142 35.1147 5.08162 32.2423 4.79358 27.5175C4.80807 27.5175 9.261 27.0397 9.27368 27.0434L12.5962 33.2439Z" fill="#007096"/>
<path d="M10.8951 15.653L9.26465 27.047C9.26465 27.047 4.79541 27.5211 4.78454 27.5211C4.50012 22.9653 6.17405 17.9152 8.37152 13.9218L10.8824 15.6383V15.653H10.8951Z" fill="#015D84"/>
<path d="M17.2447 2.11615C17.2719 2.14004 10.8933 15.6291 10.9041 15.6529H10.8914V15.6382L8.38055 13.9236C12.069 7.09459 17.2176 2.14739 17.2447 2.11615Z" fill="#007096"/>
<path d="M29.6524 27.5156C29.3644 32.2276 27.0691 35.0982 23.8952 36.6051L21.656 33.4534L25.2013 27.0415L29.6524 27.5156Z" fill="#BAEEFF"/>
<path d="M17.2448 2.14374L10.9042 15.653L9.27371 27.047L12.5962 33.2438C17.7846 34.6626 16.4006 34.7838 21.6542 33.4552L25.1995 27.0433L23.5781 15.6493L17.2448 2.14374Z" fill="#00AAD9"/>
<path opacity="0.15" d="M19.6306 7.23242L14.4712 33.7547L17.232 34.51L21.656 33.4515L25.2013 27.0414L23.5799 15.6511L19.6306 7.23242Z" fill="white"/>
</g>
<defs>
<clipPath id="clip0_38_39622">
<rect width="35" height="40" fill="white" transform="translate(0 0.5)"/>
</clipPath>
</defs>
</svg>
