<svg width="56" height="54" viewBox="0 0 56 54" fill="none" xmlns="http://www.w3.org/2000/svg">
<g clip-path="url(#clip0_9_11658)">
<path d="M37.929 32.4477C37.929 26.9867 34.697 25.1134 28.2273 24.3328C23.609 23.7084 22.6848 22.4595 22.6848 20.2769C22.6848 18.0943 24.2252 16.6863 27.3031 16.6863C30.0758 16.6863 31.6249 17.6112 32.3864 19.9676C32.4668 20.193 32.6131 20.3881 32.8057 20.5271C32.9984 20.666 33.2283 20.7421 33.4647 20.7452H35.9264C36.0689 20.7493 36.2106 20.7239 36.3431 20.6706C36.4755 20.6173 36.5959 20.5372 36.6967 20.4352C36.7976 20.3332 36.877 20.2115 36.9299 20.0774C36.9829 19.9433 37.0083 19.7997 37.0047 19.6554V19.4963C36.7071 17.8048 35.8664 16.2603 34.6134 15.1028C33.3604 13.9453 31.7653 13.2398 30.0758 13.0957V9.36376C30.0758 8.73932 29.6137 8.27098 28.8435 8.11487H26.5183C25.9022 8.11487 25.4401 8.5832 25.286 9.36376V12.9396C20.6677 13.5641 17.7293 16.6863 17.7293 20.5979C17.7293 25.7467 20.8101 27.7761 27.2769 28.5508C31.5901 29.3314 32.9764 30.268 32.9764 32.7629C32.9764 35.2577 30.8199 36.9779 27.8931 36.9779C23.8909 36.9779 22.5046 35.2607 22.0425 32.919C21.9964 32.661 21.864 32.427 21.6676 32.2564C21.4712 32.0858 21.2228 31.989 20.9642 31.9823H18.3484C18.2058 31.9787 18.064 32.0045 17.9315 32.0581C17.7991 32.1117 17.6788 32.1921 17.5779 32.2943C17.4771 32.3965 17.3978 32.5184 17.3449 32.6526C17.292 32.7869 17.2665 32.9306 17.2701 33.0751V33.2224C17.8863 37.1252 20.3509 39.9352 25.4313 40.7158V44.4595C25.4313 45.0839 25.8935 45.5523 26.6637 45.7084H29.0092C29.6253 45.7084 30.0874 45.2401 30.2415 44.4595V40.7216C34.8627 39.9411 37.9406 36.6627 37.9406 32.4477H37.929Z" fill="#08AAD9"/>
<path d="M19.9378 48.8482C7.92848 44.48 1.76687 30.9012 6.23404 18.8835C7.37037 15.69 9.18757 12.7897 11.5562 10.3892C13.9249 7.98872 16.7867 6.14708 19.9378 4.99547C20.2347 4.86661 20.4844 4.64676 20.6517 4.36677C20.819 4.08678 20.8956 3.76072 20.8708 3.43435V1.24878C20.8936 0.962172 20.8123 0.676982 20.6421 0.446944C20.4718 0.216906 20.2244 0.0579022 19.9465 -0.000110394C19.7294 -0.0232137 19.5112 0.0320693 19.3304 0.156001C13.7241 1.96196 8.83033 5.52906 5.35737 10.341C1.88441 15.1529 0.0124512 20.9601 0.0124512 26.9218C0.0124512 32.8836 1.88441 38.6907 5.35737 43.5027C8.83033 48.3146 13.7241 51.8817 19.3304 53.6877C19.4584 53.7631 19.6023 53.8067 19.7501 53.8149C19.898 53.823 20.0457 53.7955 20.181 53.7345C20.3164 53.6736 20.4355 53.5809 20.5286 53.4642C20.6218 53.3475 20.6862 53.2101 20.7167 53.0632C20.8708 52.9071 20.8708 52.751 20.8708 52.4388V50.2532C20.8708 49.7849 20.3999 49.1604 19.9378 48.8482ZM36.2748 0.156001C36.1468 0.0805324 36.0029 0.0369318 35.8551 0.0287835C35.7072 0.0206353 35.5595 0.0481723 35.4242 0.109131C35.2888 0.170089 35.1697 0.262728 35.0766 0.379433C34.9834 0.496138 34.919 0.633576 34.8885 0.780449C34.7344 0.936561 34.7344 1.09267 34.7344 1.4049V3.59046C34.7603 3.90501 34.8571 4.20934 35.0173 4.48C35.1776 4.75066 35.397 4.98042 35.6587 5.15158C47.6593 9.51977 53.818 23.0986 49.3537 35.1162C48.2183 38.3103 46.4014 41.211 44.0326 43.6117C41.6639 46.0123 38.8016 47.8536 35.6499 49.0043C35.3547 49.1346 35.1069 49.355 34.9412 49.6349C34.7755 49.9148 34.7002 50.2401 34.7257 50.5654V52.751C34.7028 53.0376 34.7842 53.3228 34.9544 53.5528C35.1247 53.7829 35.372 53.9419 35.6499 53.9999C35.8703 54.0243 36.092 53.9678 36.2748 53.8408C41.8769 52.0082 46.7613 48.4226 50.226 43.5996C53.6907 38.7765 55.5572 32.9643 55.5572 26.9984C55.5572 21.0326 53.6907 15.2204 50.226 10.3973C46.7613 5.57418 41.8769 1.98862 36.2748 0.156001Z" fill="#08AAD9"/>
</g>
<defs>
<clipPath id="clip0_9_11658">
<rect width="55.5882" height="54" fill="white"/>
</clipPath>
</defs>
</svg>
